<svg width="26" height="24" viewBox="0 0 26 24" fill="none" xmlns="http://www.w3.org/2000/svg">
<g id="Iconly/Bold/Profile">
<g id="Profile">
<path id="Profile_2" fill-rule="evenodd" clip-rule="evenodd" d="M18.4137 7.40036C18.4137 10.3829 15.983 12.8007 12.9845 12.8007C9.98613 12.8007 7.55543 10.3829 7.55543 7.40036C7.55543 4.41782 9.98613 2 12.9845 2C15.983 2 18.4137 4.41782 18.4137 7.40036ZM17.6445 15.8434C19.3707 16.1815 20.4977 16.7331 20.9807 17.6228C21.3434 18.3171 21.3434 19.1437 20.9807 19.8381C20.4977 20.7278 19.4154 21.3149 17.6266 21.6174C16.8295 21.7729 16.0226 21.874 15.2117 21.9199C14.4603 22 13.709 22 12.9488 22H11.5803C11.2941 21.9644 11.0168 21.9466 10.7485 21.9466C9.93751 21.9063 9.13046 21.8082 8.33357 21.653C6.60734 21.3327 5.48037 20.7633 4.99739 19.8737C4.81094 19.529 4.71264 19.144 4.71117 18.7527C4.70729 18.3589 4.80261 17.9705 4.98844 17.6228C5.46249 16.7331 6.58945 16.1548 8.33357 15.8434C9.13397 15.6915 9.94377 15.5934 10.7574 15.5498C12.2459 15.4338 13.7411 15.4338 15.2295 15.5498C16.0401 15.5955 16.8467 15.6936 17.6445 15.8434Z" fill="#98A2B3"/>
</g>
</g>
</svg>
