<svg width="22" height="20" viewBox="0 0 22 20" fill="none" xmlns="http://www.w3.org/2000/svg">
<g id="Envelope / Light / Solid">
<path id="Shape" fill-rule="evenodd" clip-rule="evenodd" d="M4.08953 2.5C2.66207 2.5 1.50488 3.61929 1.50488 5V15C1.50488 16.3807 2.66207 17.5 4.08953 17.5H17.8743C19.3018 17.5 20.459 16.3807 20.459 15V5C20.459 3.61929 19.3018 2.5 17.8743 2.5H4.08953ZM6.36421 6.0265C5.99867 5.73187 5.45541 5.77964 5.15079 6.1332C4.84618 6.48676 4.89557 7.01224 5.2611 7.30687L9.3273 10.5844C10.2858 11.357 11.6781 11.357 12.6366 10.5844L16.7028 7.30687C17.0683 7.01224 17.1177 6.48676 16.8131 6.1332C16.5085 5.77964 15.9652 5.73187 15.5997 6.0265L11.5335 9.30402C11.214 9.56156 10.7499 9.56156 10.4304 9.30403L6.36421 6.0265Z" fill="#98A2B3"/>
</g>
</svg>
